<?xml version="1.0" encoding="UTF-8"?>
<!-- Created with EazyDraw for Mac ( http://www.eazydraw.com/ ) -->

<svg
    version="1.1"
    xmlns:dc="http://purl.org/dc/elements/1.1/"
    xmlns:cc="http://creativecommons.org/ns#"
    xmlns:rdf="http://www.w3.org/1999/02/22-rdf-syntax-ns#"
    xmlns:svg="http://www.w3.org/2000/svg"
    xmlns:xlink="http://www.w3.org/1999/xlink"
    xmlns="http://www.w3.org/2000/svg"
    width="210.465685425"
    height="122.8"
    viewBox="0, 0, 210.465685425, 122.8"
    preserveAspectRatio="none"
    id="svg2">
   <defs
       id="defs_A72AF74A"/>
   <metadata
       id="metadata7">
      <rdf:RDF>
         <cc:Work
             rdf:about="">
            <dc:format>image/svg+xml</dc:format>
            <dc:type rdf:resource="http://purl.org/dc/dcmitype/StillImage"/>
            <dc:title></dc:title>
         </cc:Work>
      </rdf:RDF>
   </metadata>
   <g
       id="layer_Paper"
       style="fill:#000000;fill-opacity:1;stroke:#000000;stroke-opacity:1;fill-rule:nonzero;stroke-linecap:square;stroke-linejoin:miter;stroke-width:1;stroke-miterlimit:10">
      <g
          id="5D1B764A">
         <g
             id="9C1B764A">
            <path
                style="fill:#007C76;stroke:none"
                id="6C1B764A"
                d="M159.765685425,69.7 L128.065685425,9.9 C125.165685425,4.3 117.865685425,0 111.565685425,0 L97.5656854249,0 C91.2656854249,0 84.0656854249,4.4 81.0656854249,9.9 L50.9656854249,66.8 C50.1656854249,68.3 50.1656854249,69.9 50.9656854249,71.2
C51.7656854249,72.5 53.1656854249,73.2 54.8656854249,73.2 L59.3656854249,73.2 C62.0656854249,73.2 65.0656854249,71.4 66.2656854249,69 L92.7656854249,18.9 C94.0656854249,16.5 97.4656854249,14.4 100.165685425,14.4
L108.965685425,14.4 C111.665685425,14.4 115.065685425,16.5 116.365685425,18.9 L142.065685425,67.5 C142.265685425,67.9 141.965685425,68.3 141.465685425,68.3 L138.665685425,68.3 C137.765685425,68.3 136.465685425,67.5 136.065685425,66.7
L113.265685425,23.7 C111.965685425,21.3 109.065685425,19.5 106.365685425,19.5 L102.865685425,19.5 C100.165685425,19.5 97.1656854249,21.3 95.9656854249,23.7 L73.0656854249,66.9 C72.2656854249,68.4 72.2656854249,70 72.9656854249,71.3
C73.7656854249,72.6 75.1656854249,73.3 76.8656854249,73.3 L81.3656854249,73.3 C84.0656854249,73.3 87.0656854249,71.5 88.2656854249,69.1 L103.965685425,39.4 C103.965685425,39.4 103.965685425,39.4 103.965685425,39.4
C104.165685425,39 104.565685425,39 104.865685425,39.4 C104.865685425,39.4 104.865685425,39.4 104.865685425,39.4 L111.365685425,51.8 C111.665685425,52.3 111.365685425,52.7 110.865685425,52.7 L103.065685425,52.7
C101.765685425,52.7 100.665685425,53.8 100.665685425,55.1 C100.665685425,56.4 101.765685425,57.5 103.065685425,57.5 L112.565685425,57.5 C114.265685425,57.5 115.765685425,56.8 116.465685425,55.5 C117.265685425,54.2 117.265685425,52.6 116.365685425,51.1
L107.965685425,35.1 C107.165685425,33.5 105.765685425,32.6 104.265685425,32.6 C102.765685425,32.6 101.465685425,33.5 100.565685425,35.1 L83.7656854249,66.9 C83.3656854249,67.7 82.0656854249,68.5 81.1656854249,68.5
L78.3656854249,68.5 C77.8656854249,68.5 77.5656854249,68.1 77.8656854249,67.7 C77.8656854249,67.7 77.8656854249,67.7 77.8656854249,67.7 L99.8656854249,26.1 C100.265685425,25.3 101.565685425,24.5 102.465685425,24.5
L105.965685425,24.5 C106.865685425,24.5 108.165685425,25.3 108.565685425,26.1 L131.365685425,69.3 C132.665685425,71.7 135.565685425,73.5 138.265685425,73.5 L142.765685425,73.5 C144.465685425,73.5 145.965685425,72.8 146.665685425,71.5
C147.465685425,70.2 147.465685425,68.6 146.665685425,67.1 L120.165685425,17 C118.065685425,13 112.965685425,9.9 108.465685425,9.9 L100.265685425,9.9 C95.7656854249,9.9 90.6656854249,13 88.5656854249,17
L62.0656854249,67.1 C61.6656854249,67.9 60.3656854249,68.7 59.4656854249,68.7 L56.6656854249,68.7 C56.1656854249,68.7 55.9656854249,68.4 56.0656854249,67.9 L85.3656854249,12.4 C87.4656854249,8.4 93.0656854249,5.1 97.5656854249,5.1
L111.565685425,5.1 C116.065685425,5.1 121.665685425,8.4 123.765685425,12.4 L155.365685425,72.2 C155.765685425,73 156.665685425,73.5 157.565685425,73.5 C157.965685425,73.5 158.365685425,73.4 158.665685425,73.2
C159.865685425,72.4 160.365685425,70.9 159.765685425,69.7 z"/>
            <path
                style="fill:#007C76;stroke:none"
                id="8C1B764A"
                d="M121.765685425,60.6 C121.165685425,59.4 119.665685425,58.9 118.465685425,59.6 C117.265685425,60.2 116.865685425,61.7 117.465685425,62.9 L122.265685425,72.1 C122.665685425,72.9 123.565685425,73.4 124.465685425,73.4
C124.865685425,73.4 125.265685425,73.3 125.565685425,73.1 C126.765685425,72.5 127.165685425,71 126.565685425,69.8 L121.765685425,60.6 z"/>
         </g>
         <g
             id="4D1B764A">
            <path
                style="fill:#007C76;stroke:none"
                id="AC1B764A"
                d="M16.5656854249,83.3 C16.4656854249,83 16.1656854249,82.8 15.7656854249,82.8 L12.2656854249,82.8 C11.9656854249,82.8 11.6656854249,83 11.4656854249,83.3 L0.065685424949,113.8 C-0.034314575051,114 -0.034314575051,114.3 0.165685424949,114.5
C0.365685424949,114.7 0.565685424949,114.8 0.865685424949,114.8 L4.465685424949,114.8 C4.765685424949,114.8 5.065685424949,114.6 5.265685424949,114.3 L8.765685424949,105 L19.5656854249,105 L23.0656854249,114.3
C23.1656854249,114.6 23.4656854249,114.8 23.8656854249,114.8 L27.4656854249,114.8 C27.7656854249,114.8 27.9656854249,114.7 28.1656854249,114.5 C28.3656854249,114.3 28.3656854249,114 28.2656854249,113.8
L16.5656854249,83.3 z M17.7656854249,100.3 L10.2656854249,100.3 L13.9656854249,89.9 L17.7656854249,100.3 z"/>
            <path
                style="fill:#007C76;stroke:none"
                id="BC1B764A"
                d="M41.7656854249,90 C39.4656854249,90 37.3656854249,90.9 35.8656854249,92.3 L35.8656854249,91.4 C35.8656854249,91 35.4656854249,90.6 35.0656854249,90.6 L31.6656854249,90.6 C31.2656854249,90.6 30.8656854249,91 30.8656854249,91.4
L30.8656854249,114 C30.8656854249,114.4 31.2656854249,114.8 31.6656854249,114.8 L35.0656854249,114.8 C35.4656854249,114.8 35.8656854249,114.4 35.8656854249,114 L35.8656854249,100.3 C35.8656854249,97 37.8656854249,94.8 40.9656854249,94.8
C43.7656854249,94.8 45.4656854249,96.8 45.4656854249,99.8 L45.4656854249,114.1 C45.4656854249,114.5 45.8656854249,114.9 46.2656854249,114.9 L49.6656854249,114.9 C50.0656854249,114.9 50.4656854249,114.5 50.4656854249,114.1
L50.4656854249,100 C50.4656854249,93.9 47.0656854249,90 41.7656854249,90 z"/>
            <path
                style="fill:#007C76;stroke:none"
                id="CC1B764A"
                d="M74.6656854249,90.6 L70.9656854249,90.6 C70.6656854249,90.6 70.3656854249,90.8 70.1656854249,91.1 L63.9656854249,107.3 L57.5656854249,91.1 C57.4656854249,90.8 57.1656854249,90.6 56.7656854249,90.6 L53.0656854249,90.6
C52.7656854249,90.6 52.5656854249,90.7 52.3656854249,91 C52.1656854249,91.2 52.1656854249,91.5 52.2656854249,91.8 L61.3656854249,113.9 L58.2656854249,121.6 C58.1656854249,121.9 58.1656854249,122.1 58.3656854249,122.4
C58.5656854249,122.6 58.7656854249,122.8 59.0656854249,122.8 L62.4656854249,122.8 C62.7656854249,122.8 63.0656854249,122.6 63.2656854249,122.3 L75.3656854249,91.9 C75.4656854249,91.6 75.4656854249,91.4 75.2656854249,91.1
C75.0656854249,90.8 74.9656854249,90.6 74.6656854249,90.6 z"/>
            <path
                style="fill:#007C76;stroke:none"
                id="DC1B764A"
                d="M89.4656854249,82 C89.4656854249,82 88.6656854249,81.9 87.9656854249,81.9 C82.9656854249,81.9 80.0656854249,84.9 80.0656854249,90.2 L80.0656854249,90.6 L78.2656854249,90.6 C77.8656854249,90.6 77.4656854249,91 77.4656854249,91.4
L77.4656854249,94.3 C77.4656854249,94.7 77.8656854249,95.1 78.2656854249,95.1 L79.9656854249,95.1 L79.9656854249,114 C79.9656854249,114.4 80.3656854249,114.8 80.7656854249,114.8 L84.2656854249,114.8 C84.6656854249,114.8 85.0656854249,114.4 85.0656854249,114
L85.0656854249,95.1 L89.0656854249,95.1 C89.4656854249,95.1 89.8656854249,94.7 89.8656854249,94.3 L89.8656854249,91.4 C89.8656854249,91 89.4656854249,90.6 89.0656854249,90.6 L85.0656854249,90.6 L85.0656854249,90.2
C85.0656854249,86.9 86.6656854249,86.5 88.1656854249,86.5 C88.6656854249,86.5 89.1656854249,86.6 89.1656854249,86.6 C89.3656854249,86.6 89.6656854249,86.6 89.8656854249,86.4 C90.0656854249,86.2 90.1656854249,86 90.1656854249,85.8
L90.1656854249,82.8 C90.1656854249,82.4 89.8656854249,82 89.4656854249,82 z"/>
            <path
                style="fill:#007C76;stroke:none"
                id="EC1B764A"
                d="M103.665685425,90 C96.4656854249,90 91.0656854249,95.5 91.0656854249,102.7 C91.0656854249,110.1 96.3656854249,115.4 103.665685425,115.4 C110.865685425,115.4 116.265685425,109.9 116.265685425,102.7 C116.265685425,95.5 110.865685425,90 103.665685425,90
z M103.665685425,110.7 C99.2656854249,110.7 96.1656854249,107.4 96.1656854249,102.8 C96.1656854249,98.2 99.2656854249,94.9 103.665685425,94.9 C108.065685425,94.9 111.165685425,98.2 111.165685425,102.8 C111.165685425,107.3 107.965685425,110.7 103.665685425,110.7
z"/>
            <path
                style="fill:#007C76;stroke:none"
                id="FC1B764A"
                d="M130.865685425,90 C128.265685425,90 126.265685425,91 124.965685425,92.4 L124.965685425,91.4 C124.965685425,91 124.565685425,90.6 124.165685425,90.6 L120.765685425,90.6 C120.365685425,90.6 119.965685425,91 119.965685425,91.4
L119.965685425,114 C119.965685425,114.4 120.365685425,114.8 120.765685425,114.8 L124.165685425,114.8 C124.565685425,114.8 124.965685425,114.4 124.965685425,114 L124.965685425,103.2 C124.965685425,97.7 126.865685425,95.1 130.865685425,95.1
C131.265685425,95.1 131.665685425,94.7 131.665685425,94.3 L131.665685425,90.9 C131.665685425,90.4 131.265685425,90 130.865685425,90 z"/>
            <path
                style="fill:#007C76;stroke:none"
                id="0D1B764A"
                d="M145.165685425,96.2 C142.065685425,94.7 139.365685425,93.4 139.365685425,90.8 C139.365685425,88.5 141.065685425,87 143.665685425,87 C146.665685425,87 148.065685425,89.1 148.665685425,90.4 C148.865685425,90.8 149.265685425,91 149.665685425,90.8
L152.665685425,89.6 C153.065685425,89.4 153.265685425,89 153.165685425,88.6 C152.765685425,87.5 150.565685425,82.2 143.765685425,82.2 C138.165685425,82.2 134.265685425,85.7 134.265685425,90.8 C134.265685425,96.5 138.665685425,98.6 142.565685425,100.4
C145.765685425,101.9 148.565685425,103.2 148.565685425,106.3 C148.565685425,108.9 146.765685425,110.5 143.865685425,110.5 C140.965685425,110.5 138.965685425,109.1 137.965685425,106.3 C137.865685425,106.1 137.765685425,105.9 137.565685425,105.8
C137.365685425,105.7 137.165685425,105.7 136.965685425,105.8 L133.965685425,107.1 C133.565685425,107.3 133.365685425,107.7 133.565685425,108.1 C134.265685425,110.3 136.765685425,115.4 143.865685425,115.4
C149.765685425,115.4 153.865685425,111.6 153.865685425,106.1 C153.665685425,100.3 149.065685425,98.1 145.165685425,96.2 z"/>
            <path
                style="fill:#007C76;stroke:none"
                id="1D1B764A"
                d="M168.765685425,90 C161.565685425,90 156.165685425,95.5 156.165685425,102.7 C156.165685425,110.1 161.465685425,115.4 168.765685425,115.4 C175.965685425,115.4 181.365685425,109.9 181.365685425,102.7 C181.365685425,95.5 175.965685425,90 168.765685425,90
z M168.665685425,110.7 C164.265685425,110.7 161.165685425,107.4 161.165685425,102.8 C161.165685425,98.2 164.265685425,94.9 168.665685425,94.9 C173.065685425,94.9 176.165685425,98.2 176.165685425,102.8 C176.265685425,107.3 173.065685425,110.7 168.665685425,110.7
z"/>
            <path
                style="fill:#007C76;stroke:none"
                id="2D1B764A"
                d="M195.165685425,82 C195.165685425,82 194.365685425,81.9 193.665685425,81.9 C188.665685425,81.9 185.765685425,84.9 185.765685425,90.2 L185.765685425,90.6 L184.065685425,90.6 C183.665685425,90.6 183.265685425,91 183.265685425,91.4
L183.265685425,94.3 C183.265685425,94.7 183.665685425,95.1 184.065685425,95.1 L185.765685425,95.1 L185.765685425,114 C185.765685425,114.4 186.165685425,114.8 186.565685425,114.8 L190.065685425,114.8 C190.465685425,114.8 190.865685425,114.4 190.865685425,114
L190.865685425,95.1 L194.865685425,95.1 C195.265685425,95.1 195.665685425,94.7 195.665685425,94.3 L195.665685425,91.4 C195.665685425,91 195.265685425,90.6 194.865685425,90.6 L190.865685425,90.6 L190.865685425,90.2
C190.865685425,86.9 192.465685425,86.5 193.965685425,86.5 C194.465685425,86.5 194.965685425,86.6 194.965685425,86.6 C195.165685425,86.6 195.465685425,86.6 195.665685425,86.4 C195.865685425,86.2 195.965685425,86 195.965685425,85.8
L195.965685425,82.8 C195.865685425,82.4 195.565685425,82 195.165685425,82 z"/>
            <path
                style="fill:#007C76;stroke:none"
                id="3D1B764A"
                d="M210.165685425,110.6 C209.965685425,110.4 209.765685425,110.4 209.565685425,110.4 C209.565685425,110.4 209.065685425,110.4 208.665685425,110.4 C206.365685425,110.4 205.265685425,110 205.265685425,106 L205.265685425,95.2
L209.365685425,95.2 C209.765685425,95.2 210.165685425,94.8 210.165685425,94.4 L210.165685425,91.4 C210.165685425,91 209.765685425,90.6 209.365685425,90.6 L205.265685425,90.6 L205.265685425,86.7 C205.265685425,86.3 204.865685425,85.9 204.465685425,85.9
L201.065685425,85.9 C200.665685425,85.9 200.265685425,86.3 200.265685425,86.7 L200.265685425,90.6 L198.465685425,90.6 C198.065685425,90.6 197.665685425,91 197.665685425,91.4 L197.665685425,94.3 C197.665685425,94.7 198.065685425,95.1 198.465685425,95.1
L200.265685425,95.1 L200.265685425,106.2 C200.265685425,113.5 204.265685425,115.1 207.565685425,115.1 C208.765685425,115.1 209.765685425,115 209.765685425,115 C210.165685425,114.9 210.465685425,114.6 210.465685425,114.2
L210.465685425,111.2 C210.365685425,110.9 210.265685425,110.7 210.165685425,110.6 z"/>
         </g>
      </g>
   </g>
</svg>
